<?xml version="1.0" encoding="UTF-8"?>
<svg id="Ebene_1" xmlns="http://www.w3.org/2000/svg" version="1.1" viewBox="0 0 390 115">
  <!-- Generator: Adobe Illustrator 30.1.0, SVG Export Plug-In . SVG Version: 2.1.1 Build 89)  -->
  <defs>
    <style>
      .st0, .st1 {
        fill: #fff;
      }

      .st0, .st2 {
        fill-rule: evenodd;
      }

      .st2 {
        fill: #009eff;
      }
    </style>
  </defs>
  <g>
    <path class="st2" d="M68,11.4c5,1.2,9.6,3.1,13.8,5.7l9.6-6.5,12.3,12.3-6.5,9.6c2.6,4.2,4.6,8.9,5.7,13.8l11.4,2.1v17.4l-11.4,2.1c-1.2,5-3.1,9.6-5.7,13.8l6.5,9.6-12.3,12.3-9.6-6.5c-4.2,2.6-8.9,4.6-13.8,5.7l-2.1,11.4h-17.4l-2.1-11.4c-5-1.2-9.6-3.1-13.8-5.7l-9.6,6.5-12.3-12.3,6.5-9.6c-2.6-4.2-4.6-8.9-5.7-13.8L.1,65.8v-17.4l11.4-2.1c1.2-5,3.1-9.6,5.7-13.8l-6.5-9.6,12.3-12.3,9.6,6.5c4.2-2.6,8.9-4.6,13.8-5.7L48.5,0h17.4l2.1,11.4Z"/>
    <path class="st0" d="M57.1,22.7c19,0,34.4,15.4,34.4,34.4s-15.4,34.4-34.4,34.4-34.4-15.4-34.4-34.4,15.4-34.4,34.4-34.4h0Z"/>
    <path class="st2" d="M57.1,32.3c4.9,0,8.9,4,8.9,8.9s-4,8.9-8.9,8.9-8.9-4-8.9-8.9,4-8.9,8.9-8.9h0ZM38.4,41.2c3.9,0,7.1,3.2,7.1,7.1s-3.2,7.1-7.1,7.1-7.1-3.2-7.1-7.1,3.2-7.1,7.1-7.1ZM75.9,41.2c3.9,0,7.1,3.2,7.1,7.1s-3.2,7.1-7.1,7.1-7.1-3.2-7.1-7.1,3.2-7.1,7.1-7.1ZM41.5,84.5c-5.7-3.3-10.3-8.3-13-14.3l.8-7.5c.6-5.3,9.8-6.7,14.9-4.2v.4l-2.6,25.5h0ZM85.8,70.2c-2.7,6-7.3,11-13,14.3l-2.6-25.5v-.4c5.1-2.5,14.4-1.1,14.9,4.2l.8,7.5h-.1ZM68.5,59.1l2.7,26.2c-4.2,2.1-9,3.3-14.1,3.3s-9.9-1.2-14.1-3.3l2.7-26.2c.4-3.8,4.4-6,8.9-6.6l1,2.6-2,14.6,3.5,3.5,3.5-3.5-2-14.6,1-2.6c4.5.6,8.5,2.8,8.9,6.6Z"/>
  </g>
  <g>
    <g>
      <path class="st1" d="M169.3,76.9h-19l-3.6-13.8-8.9,13.8h-19.8l17.5-25.1-6.2-24h18.8l2.8,13.2,8.5-13.2h19.7l-17.2,23.9,7.4,25.3h0Z"/>
      <path class="st1" d="M201.1,62.9h-25.3l2.4-11.2h25.3l-2.4,11.2Z"/>
      <path class="st1" d="M241.5,61.2h-17.3l-3.3,15.7h-16.9l10.5-49.2h35.9l-3.1,14.3h-19l-1,4.8h17.3l-3.1,14.3h0Z"/>
      <path class="st1" d="M258.2,76.9h-15l11.2-52.7h15l-11.2,52.7Z"/>
      <path class="st1" d="M303.8,76.9h-14.8l1.1-5.1h-.1c-2.9,3.8-7.2,5.8-12.9,5.8s-6.8-1.1-9.1-3.4c-2.3-2.3-3.4-5.7-3.4-10.1,0-6.7,1.8-12.3,5.5-16.9,3.7-4.5,8.7-6.8,15.1-6.8s5.2.5,7,1.5,3,2.2,3.5,3.6h.1l1-4.4h14.8l-7.7,35.8h-.1ZM285.8,65.9c2.2,0,4-.9,5.3-2.7s1.9-3.9,1.9-6.4-.4-2.6-1.3-3.5-2.1-1.3-3.8-1.3-2.5.3-3.4.8c-1,.6-1.7,1.3-2.2,2.2s-.9,1.9-1.1,2.8c-.2.9-.4,1.9-.4,2.9,0,1.6.4,2.9,1.3,3.8.9.9,2.1,1.3,3.7,1.3h0Z"/>
      <path class="st1" d="M335.6,72.3l.2-1.1h-.1c-3,3.7-7.2,5.6-12.8,5.6s-6.9-1.1-9.2-3.4c-2.3-2.3-3.4-5.7-3.4-10.1,0-6.6,1.8-12.1,5.4-16.4,3.6-4.4,8.6-6.5,15-6.5s5.2.5,6.9,1.6c1.8,1.1,3,2.3,3.7,3.7h.1l1-4.6h14.8l-7,33.1c-2.7,12.3-11.8,18.5-27.5,18.5s-10.9-.6-14.3-1.9l2.7-12.5c3.7,1.4,7.7,2,12.2,2s7.1-.6,8.8-1.9c1.7-1.2,2.9-3.3,3.5-6.1h0ZM331.6,64.5c2.2,0,4-.8,5.2-2.3s1.8-3.4,1.8-5.7-1.7-4.5-5.1-4.5-4.3.8-5.4,2.5-1.7,3.5-1.7,5.5c0,3,1.7,4.4,5.2,4.4h0Z"/>
      <path class="st1" d="M368.9,76.9h-15l7.6-35.8h14.6l-1.2,5.8h.1c2.9-4.4,6.6-6.5,11.2-6.5s2.8.2,3.9.5l-2.8,13.3c-2-.5-3.7-.8-5.1-.8-2.9,0-5.1.6-6.6,1.9-1.6,1.3-2.7,3.3-3.3,6.1l-3.3,15.4h-.1Z"/>
    </g>
    <g>
      <path class="st1" d="M117.8,90.5l2-4.5-1.9-4.3h1.3l1.3,3,1.2-3h1.3l-1.9,4.3,2,4.6h-1.4l-1.4-3.2-1.3,3.2h-1.3.1Z"/>
      <path class="st1" d="M124.8,90.5v-1.1h1.3v1.1h-1.3Z"/>
      <path class="st1" d="M131.3,90.6c-.6,0-1,0-1.4-.2-.3-.2-.6-.4-.8-.6-.2-.3-.3-.6-.3-1v-4.3c0-.6,0-1.1.2-1.5.1-.4.4-.8.7-1.1.4-.3.9-.4,1.7-.4s1,0,1.3.2c.3,0,.6.3.7.6.2.3.3.6.3.9v1.7h-1.5v-1.6c0-.3-.1-.4-.2-.6s-.4-.2-.7-.2-.6,0-.7.2c-.2,0-.3.3-.3.6v5.6c0,.3.1.5.3.6s.4.2.7.2.5,0,.7-.2.2-.3.3-.6v-1.8h1.5v1.6c0,.3-.1.7-.3,1s-.4.5-.7.6-.8.2-1.3.2h-.2Z"/>
      <path class="st1" d="M138.2,90.6c-.6,0-1,0-1.4-.2-.3,0-.6-.4-.8-.6-.2-.3-.3-.6-.4-1s0-.8,0-1.3v-3.1c0-.6,0-1.1.2-1.5s.4-.8.7-1c.4-.3.9-.4,1.7-.4s1,0,1.3.2c.3,0,.6.4.8.6s.3.6.4.9v5.5c0,.4-.2.7-.3,1-.2.3-.4.5-.8.6-.3.2-.8.2-1.4.2h0ZM138.2,89.7c.3,0,.5,0,.7-.2s.3-.4.3-.7v-5.5c0-.3-.2-.5-.3-.6s-.4-.2-.7-.2-.6,0-.7.2c-.2.2-.3.4-.3.6v5.5c0,.3.2.5.3.7.2.2.4.2.7.2Z"/>
      <path class="st1" d="M143,90.5v-8.9h1.5v.9c.1-.3.3-.5.7-.7s.7-.3,1.2-.3.7,0,1,.2c.3,0,.5.4.7.7.2-.3.5-.5.8-.7.4-.2.8-.2,1.2-.2s1,.2,1.4.5c.3.3.5.8.5,1.4v7.1h-1.5v-7.1c0-.3,0-.6-.3-.7s-.4-.2-.7-.2c-.5,0-.8,0-1,.2-.2,0-.3.4-.3.7v7.1h-1.5v-7.1c0-.3,0-.6-.3-.7s-.4-.2-.7-.2-.7,0-.9.3c-.2.2-.3.4-.3.8v7h-1.5,0Z"/>
      <path class="st1" d="M158.2,90.5v-10.4h1.7l2.2,8.5,2.1-8.5h1.7v10.4h-1.3v-4.2l.2-4-2.1,8.1h-1.2l-2.2-8.1.2,4v4.2h-1.3,0Z"/>
      <path class="st1" d="M170.8,90.6c-.6,0-1,0-1.4-.2-.3,0-.6-.4-.8-.6-.2-.3-.3-.6-.4-1v-4.4c0-.6,0-1.1.2-1.5.1-.4.4-.8.7-1,.4-.3.9-.4,1.7-.4s1,0,1.3.2c.3,0,.6.4.8.6s.3.6.4.9v5.5c0,.4-.2.7-.3,1-.2.3-.4.5-.8.6-.3.2-.8.2-1.4.2h0ZM170.8,89.7c.3,0,.5,0,.7-.2s.3-.4.3-.7v-5.5c0-.3-.2-.5-.3-.6-.2-.2-.4-.2-.7-.2s-.6,0-.7.2c-.2.2-.3.4-.3.6v5.5c0,.3.2.5.3.7.2.2.4.2.7.2Z"/>
      <path class="st1" d="M177.4,90.6c-.6,0-1,0-1.3-.4s-.5-.6-.6-1c0-.4-.1-.9-.1-1.5v-3.3c0-.5,0-1,.2-1.5.1-.4.3-.8.7-1,.3-.3.8-.4,1.4-.4s.6,0,.8.2c.2,0,.4.3.5.5v-2.3h1.5v10.5h-1.5v-.7c-.2.3-.4.5-.7.6s-.6.2-1,.2h.1ZM177.9,89.7h.6c.2,0,.3-.3.4-.5,0-.3.1-.6.1-1.2v-3.6c0-.6,0-1.1-.2-1.4-.1-.3-.4-.5-.9-.5s-.7.2-.9.5-.2.8-.2,1.5v4.4c0,.3.1.5.3.6.1,0,.4.2.7.2h0Z"/>
      <path class="st1" d="M184.7,90.6c-.6,0-1,0-1.3-.4s-.5-.6-.6-1c0-.4-.1-.9-.1-1.5v-3.3c0-.5,0-1,.2-1.5.1-.4.3-.8.7-1,.3-.3.8-.4,1.4-.4s.6,0,.8.2c.2,0,.4.3.5.5v-2.3h1.5v10.5h-1.5v-.7c-.2.3-.4.5-.7.6s-.6.2-1,.2h.1ZM185.2,89.7h.6c.2,0,.3-.3.4-.5,0-.3.1-.6.1-1.2v-3.6c0-.6,0-1.1-.2-1.4-.1-.3-.4-.5-.9-.5s-.7.2-.9.5-.2.8-.2,1.5v4.4c0,.3.1.5.3.6.1,0,.4.2.7.2h0Z"/>
      <path class="st1" d="M190.3,80.8v-1h1.5v1h-1.5ZM190.3,90.5v-8.9h1.5v8.9h-1.5Z"/>
      <path class="st1" d="M194.2,90.5v-8.9h1.5v.9c.1-.3.3-.5.7-.7s.8-.3,1.3-.3,1,.2,1.4.5c.3.3.5.8.5,1.4v7.1h-1.5v-7.1c0-.3-.1-.6-.3-.7s-.5-.2-.8-.2h-.6c-.2,0-.4.2-.5.3-.1,0-.2.3-.2.6v7.1h-1.5,0Z"/>
      <path class="st1" d="M204.2,91.8h-1.4c-.4,0-.8-.2-1.1-.4l.5-.8c.2,0,.5.2.8.3h1.1c.4,0,.6,0,.9-.3.2-.2.3-.5.3-.8v-.9c-.2.3-.4.5-.7.6h-.9c-.6,0-1,0-1.3-.4s-.5-.6-.6-1-.2-.9-.2-1.5v-2.4c0-.6,0-1,.2-1.5.1-.4.4-.8.7-1,.3-.3.8-.4,1.3-.4s.6,0,.8.2c.2,0,.4.3.5.5v-.6h1.5v8.2c0,.2,0,.4-.1.7,0,.2-.2.5-.4.7s-.4.4-.8.5c-.3,0-.8.2-1.3.2h.2ZM204.4,88.8c.2,0,.4,0,.6-.2s.3-.3.3-.6.1-.7.1-1.2v-2.7c0-.6,0-1.1-.2-1.4s-.4-.4-.9-.4-.6,0-.7.2c-.2.2-.3.4-.3.6v3.6c0,.7,0,1.1.2,1.5.2.3.5.5,1,.5h-.1Z"/>
      <path class="st1" d="M215.6,90.6c-.7,0-1.2,0-1.6-.4-.4-.3-.7-.6-.8-1.1-.2-.5-.2-1.1-.2-1.8v-4.3c0-.4,0-.9.1-1.2s.2-.7.4-1,.5-.5.8-.7c.4-.2.8-.2,1.4-.2s1,0,1.4.2c.3.2.6.4.8.6s.3.6.3,1v2.2h-1.5v-1.1c0-.7,0-1.2-.2-1.6-.1-.4-.4-.5-.9-.5s-.8.2-1,.5c-.2.4-.3.9-.3,1.6v5.8c0,.3.2.6.4.8s.4.2.8.2.8-.2.9-.5c.1-.4.2-1,.2-1.8v-1h1.5v1c0,.7,0,1.3-.2,1.8-.1.5-.4.9-.8,1.1-.4.3-.9.4-1.6.4h.1Z"/>
      <path class="st1" d="M222.7,90.6c-.6,0-1,0-1.4-.2-.3,0-.6-.4-.8-.6-.2-.3-.3-.6-.4-1v-4.4c0-.6,0-1.1.2-1.5.1-.4.4-.8.7-1,.4-.3.9-.4,1.7-.4s1,0,1.3.2c.3,0,.6.4.8.6s.3.6.4.9v5.5c0,.4-.2.7-.3,1-.2.3-.4.5-.8.6-.3.2-.8.2-1.4.2h0ZM222.7,89.7c.3,0,.5,0,.7-.2s.3-.4.3-.7v-5.5c0-.3-.2-.5-.3-.6-.2-.2-.4-.2-.7-.2s-.6,0-.7.2c-.2.2-.3.4-.3.6v5.5c0,.3.2.5.3.7.2.2.4.2.7.2Z"/>
      <path class="st1" d="M227.5,90.5v-8.9h1.5v.9c.1-.3.3-.5.7-.7s.7-.3,1.2-.3.7,0,1,.2c.3,0,.5.4.6.7.2-.3.5-.5.8-.7.4-.2.8-.2,1.2-.2s1,.2,1.4.5c.3.3.5.8.5,1.4v7.1h-1.5v-7.1c0-.3,0-.6-.3-.7-.2,0-.4-.2-.7-.2-.5,0-.8,0-1,.2-.2,0-.3.4-.3.7v7.1h-1.5v-7.1c0-.3,0-.6-.3-.7s-.4-.2-.7-.2-.7,0-.9.3c-.2.2-.3.4-.3.8v7h-1.5.1Z"/>
      <path class="st1" d="M238.9,90.5v-8.9h1.5v.9c.1-.3.3-.5.7-.7s.7-.3,1.2-.3.7,0,1,.2c.3,0,.5.4.6.7.2-.3.5-.5.8-.7.4-.2.8-.2,1.2-.2s1,.2,1.4.5c.3.3.5.8.5,1.4v7.1h-1.5v-7.1c0-.3,0-.6-.3-.7-.2,0-.4-.2-.7-.2-.5,0-.8,0-1,.2-.2,0-.3.4-.3.7v7.1h-1.5v-7.1c0-.3,0-.6-.3-.7s-.4-.2-.7-.2-.7,0-.9.3c-.2.2-.3.4-.3.8v7h-1.5.1Z"/>
      <path class="st1" d="M252.2,90.6c-.3,0-.6,0-.9-.2-.3,0-.6-.3-.8-.6-.2-.3-.3-.7-.3-1.1v-7.1h1.5v7c0,.3,0,.6.3.8s.5.3.8.3.7,0,.9-.3.3-.5.3-.8v-7h1.5v8.9h-1.5v-.9c-.1.3-.3.5-.6.7s-.7.3-1.2.3Z"/>
      <path class="st1" d="M257.9,90.5v-8.9h1.5v.9c.1-.3.3-.5.7-.7s.8-.3,1.3-.3,1,.2,1.4.5c.3.3.5.8.5,1.4v7.1h-1.5v-7.1c0-.3-.1-.6-.3-.7-.2,0-.5-.2-.8-.2h-.6c-.2,0-.4.2-.5.3-.1,0-.2.3-.2.6v7.1s-1.5,0-1.5,0Z"/>
      <path class="st1" d="M265.6,80.8v-1h1.5v1h-1.5ZM265.6,90.5v-8.9h1.5v8.9h-1.5Z"/>
      <path class="st1" d="M271.7,90.5h-1.2c-.3,0-.4-.2-.5-.4,0-.2-.1-.5-.1-.8v-6.7h-1.2v-.8h1.2v-1.6h1.5v1.6h1.4v.8h-1.4v7h1.3v.9h-1,0Z"/>
      <path class="st1" d="M274.1,91.9v-.8h1.4s.1-.2,0-.3v-.5l-2-8.6h1.4l.9,4.7.4,2.4h.1l.3-2.4.8-4.7h1.4l-2,9c0,.3-.2.6-.2.8s-.2.3-.4.4-.5,0-.9,0h-1.4.2Z"/>
      <path class="st1" d="M285,90.5v-9.5h-1.5v-.9h4.4v.9h-1.4v9.5h-1.5Z"/>
      <path class="st1" d="M291.5,90.6c-.6,0-1,0-1.4-.2-.3,0-.6-.4-.8-.6-.2-.3-.3-.6-.4-1v-4.4c0-.6,0-1.1.2-1.5.1-.4.4-.8.7-1,.4-.3.9-.4,1.7-.4s1,0,1.3.2c.3,0,.6.4.8.6s.3.6.4.9v5.5c0,.4-.2.7-.3,1-.2.3-.4.5-.8.6-.3.2-.8.2-1.4.2h0ZM291.5,89.7c.3,0,.5,0,.7-.2s.3-.4.3-.7v-5.5c0-.3-.2-.5-.3-.6-.2-.2-.4-.2-.7-.2s-.6,0-.7.2c-.2.2-.3.4-.3.6v5.5c0,.3.2.5.3.7.2.2.4.2.7.2Z"/>
      <path class="st1" d="M298.7,90.6c-.6,0-1,0-1.4-.2-.3,0-.6-.4-.8-.6-.2-.3-.3-.6-.4-1v-4.4c0-.6,0-1.1.2-1.5.1-.4.4-.8.7-1,.4-.3.9-.4,1.7-.4s1,0,1.3.2c.3,0,.6.4.8.6s.3.6.4.9v5.5c0,.4-.2.7-.3,1-.2.3-.4.5-.8.6-.3.2-.8.2-1.4.2h0ZM298.7,89.7c.3,0,.5,0,.7-.2s.3-.4.3-.7v-5.5c0-.3-.2-.5-.3-.6-.2-.2-.4-.2-.7-.2s-.6,0-.7.2c-.2.2-.3.4-.3.6v5.5c0,.3.2.5.3.7.2.2.4.2.7.2Z"/>
      <path class="st1" d="M303.5,90.5v-10.5h1.5v10.5h-1.5Z"/>
    </g>
  </g>
</svg>